<svg width="48" height="48" viewBox="0 0 48 48" fill="none" xmlns="http://www.w3.org/2000/svg">
<g clip-path="url(#clip0_1427_79270)">
<path d="M29.8189 23.9993C29.8189 20.7859 27.2139 18.1813 24.0009 18.1813C20.7875 18.1813 18.1829 20.7859 18.1829 23.9993C18.1829 27.2123 20.7875 29.8173 24.0009 29.8173C27.2139 29.8173 29.8189 27.2123 29.8189 23.9993Z" fill="black"/>
<path fill-rule="evenodd" clip-rule="evenodd" d="M23.4191 9.69044C23.0662 9.69029 22.7391 9.69014 22.4351 9.69062V9.68625C19.1821 9.68989 18.5581 9.71171 16.948 9.78443C15.2462 9.86261 14.3223 10.1462 13.707 10.3862C12.8925 10.7033 12.3107 11.0815 11.6998 11.6924C11.0889 12.3033 10.71 12.8851 10.3937 13.6996C10.1548 14.3148 9.8704 15.2384 9.79258 16.9402C9.70895 18.7802 9.69222 19.33 9.69222 23.9909C9.69222 28.6519 9.70895 29.2046 9.79258 31.0445C9.87004 32.7463 10.1548 33.6699 10.3937 34.2844C10.7107 35.0993 11.0889 35.6796 11.6998 36.2905C12.3107 36.9014 12.8925 37.2796 13.707 37.5959C14.3226 37.8349 15.2462 38.1192 16.948 38.1978C18.7879 38.2814 19.3403 38.2996 24.0009 38.2996C28.6611 38.2996 29.2138 38.2814 31.0538 38.1978C32.7555 38.1199 33.6799 37.8363 34.2944 37.5963C35.1093 37.28 35.6893 36.9018 36.3001 36.2909C36.911 35.6804 37.2899 35.1004 37.6063 34.2859C37.8452 33.6713 38.1295 32.7477 38.2074 31.046C38.291 29.206 38.3092 28.6533 38.3092 23.9953C38.3092 19.3372 38.291 18.7845 38.2074 16.9446C38.1299 15.2428 37.8452 14.3192 37.6063 13.7047C37.2892 12.8902 36.911 12.3084 36.3001 11.6975C35.6896 11.0866 35.1089 10.7084 34.2944 10.392C33.6791 10.1531 32.7555 9.86879 31.0538 9.79098C29.2135 9.70734 28.6611 9.69062 24.0009 9.69062C23.7995 9.69062 23.6057 9.69053 23.4191 9.69044ZM31.2232 14.6825C31.2232 13.5258 32.1614 12.5887 33.3177 12.5887C34.474 12.5887 35.4122 13.5261 35.4122 14.6825C35.4122 15.8388 34.474 16.7769 33.3177 16.7769C32.1614 16.7769 31.2232 15.8388 31.2232 14.6825ZM15.0375 23.9993C15.0375 19.0492 19.0508 15.0359 24.0009 15.0359C28.9509 15.0359 32.9628 19.0492 32.9628 23.9993C32.9628 28.9493 28.9509 32.9608 24.0009 32.9608C19.0508 32.9608 15.0375 28.9493 15.0375 23.9993Z" fill="black"/>
<path fill-rule="evenodd" clip-rule="evenodd" d="M1.30792 6.55211C0 9.11905 0 12.4794 0 19.2V28.8C0 35.5206 0 38.8809 1.30792 41.4479C2.4584 43.7058 4.29417 45.5416 6.55211 46.6921C9.11905 48 12.4794 48 19.2 48H28.8C35.5206 48 38.8809 48 41.4479 46.6921C43.7058 45.5416 45.5416 43.7058 46.6921 41.4479C48 38.8809 48 35.5206 48 28.8V19.2C48 12.4794 48 9.11905 46.6921 6.55211C45.5416 4.29417 43.7058 2.4584 41.4479 1.30792C38.8809 0 35.5206 0 28.8 0H19.2C12.4794 0 9.11905 0 6.55211 1.30792C4.29417 2.4584 2.4584 4.29417 1.30792 6.55211ZM16.804 6.65071C18.6658 6.56598 19.2607 6.54526 24.0009 6.54526H23.9954C28.7371 6.54526 29.3298 6.56598 31.1916 6.65071C33.0497 6.7358 34.3188 7.02997 35.4314 7.46159C36.5805 7.90703 37.5514 8.50338 38.5223 9.47426C39.4931 10.4444 40.0895 11.4182 40.5367 12.5662C40.9658 13.6759 41.2604 14.9443 41.3476 16.8024C41.4313 18.6642 41.4531 19.2591 41.4531 23.9993C41.4531 28.7395 41.4313 29.3329 41.3476 31.1947C41.2604 33.0521 40.9658 34.3208 40.5367 35.4309C40.0895 36.5785 39.4931 37.5523 38.5223 38.5225C37.5525 39.4933 36.5801 40.0911 35.4325 40.537C34.322 40.9686 33.0522 41.2627 31.1941 41.3478C29.3324 41.4326 28.7393 41.4533 23.9987 41.4533C19.2588 41.4533 18.6643 41.4326 16.8026 41.3478C14.9448 41.2627 13.6761 40.9686 12.5656 40.537C11.4184 40.0911 10.4446 39.4933 9.47478 38.5225C8.50426 37.5523 7.90791 36.5785 7.46175 35.4306C7.03049 34.3208 6.73631 33.0525 6.65086 31.1943C6.5665 29.3326 6.54541 28.7395 6.54541 23.9993C6.54541 19.2591 6.56723 18.6638 6.6505 16.802C6.73413 14.9446 7.02867 13.6759 7.46138 12.5658C7.90864 11.4182 8.50499 10.4444 9.47587 9.47426C10.446 8.50374 11.4198 7.9074 12.5678 7.46159C13.6776 7.02997 14.9459 6.7358 16.804 6.65071Z" fill="black"/>
</g>
<defs>
<clipPath id="clip0_1427_79270">
<rect width="48" height="47.9985" fill="white"/>
</clipPath>
</defs>
</svg>
