<svg width="48" height="48" viewBox="0 0 48 48" fill="none" xmlns="http://www.w3.org/2000/svg">
<g clip-path="url(#clip0_1428_79512)">
<path fill-rule="evenodd" clip-rule="evenodd" d="M1.30792 6.55211C0 9.11905 0 12.4794 0 19.2V28.8C0 35.5206 0 38.8809 1.30792 41.4479C2.4584 43.7058 4.29417 45.5416 6.55211 46.6921C9.11905 48 12.4794 48 19.2 48H28.8C35.5206 48 38.8809 48 41.4479 46.6921C43.7058 45.5416 45.5416 43.7058 46.6921 41.4479C48 38.8809 48 35.5206 48 28.8V19.2C48 12.4794 48 9.11905 46.6921 6.55211C45.5416 4.29417 43.7058 2.4584 41.4479 1.30792C38.8809 0 35.5206 0 28.8 0H19.2C12.4794 0 9.11905 0 6.55211 1.30792C4.29417 2.4584 2.4584 4.29417 1.30792 6.55211ZM26.3837 15.0146C23.5177 16.2066 17.7897 18.6739 9.19983 22.4164C7.80496 22.9711 7.07427 23.5137 7.00775 24.0443C6.89533 24.9411 8.0183 25.2942 9.54749 25.775C9.75549 25.8404 9.97101 25.9082 10.192 25.98C11.6964 26.4691 13.7202 27.0412 14.7723 27.0639C15.7267 27.0845 16.7918 26.6911 17.9678 25.8836C25.9936 20.4659 30.1366 17.7276 30.3967 17.6686C30.5802 17.6269 30.8345 17.5745 31.0068 17.7277C31.1791 17.8808 31.1621 18.1708 31.1439 18.2486C31.0326 18.7229 26.6246 22.821 24.3434 24.9418C23.6323 25.6029 23.1278 26.0719 23.0247 26.179C22.7937 26.4189 22.5583 26.6458 22.332 26.864C20.9343 28.2114 19.8862 29.2218 22.3901 30.8718C23.5933 31.6647 24.5562 32.3204 25.5168 32.9746C26.5658 33.689 27.6121 34.4015 28.9659 35.2889C29.3108 35.515 29.6402 35.7498 29.961 35.9786C31.1819 36.8489 32.2787 37.6308 33.6337 37.5062C34.4211 37.4337 35.2344 36.6933 35.6474 34.4852C36.6236 29.2668 38.5423 17.96 38.9858 13.3007C39.0246 12.8925 38.9758 12.3701 38.9365 12.1408C38.8973 11.9114 38.8152 11.5847 38.5171 11.3428C38.1641 11.0563 37.6191 10.9959 37.3753 11.0002C36.2671 11.0197 34.5667 11.611 26.3837 15.0146Z" fill="black"/>
</g>
<defs>
<clipPath id="clip0_1428_79512">
<rect width="48" height="48" fill="white"/>
</clipPath>
</defs>
</svg>
