<svg width="48" height="48" viewBox="0 0 48 48" fill="none" xmlns="http://www.w3.org/2000/svg">
<g clip-path="url(#clip0_1427_79288)">
<path fill-rule="evenodd" clip-rule="evenodd" d="M24.5141 37.8067H24.5199C32.3583 37.8067 38.7378 31.429 38.7411 23.5899C38.7425 19.7913 37.2646 16.2193 34.5796 13.5322C31.8946 10.845 28.3241 9.36422 24.5256 9.36272C16.6812 9.36272 10.3015 15.74 10.2985 23.5785C10.2974 26.2647 11.0492 28.8809 12.4727 31.1445L12.811 31.6822L11.3742 36.9284L16.7567 35.5169L17.276 35.8251C19.4594 37.1204 21.9623 37.8056 24.5141 37.8067ZM29.3992 25.7687C29.7911 25.9113 31.893 26.9452 32.3205 27.1592C32.4038 27.2009 32.4818 27.2385 32.554 27.2734C32.8524 27.4175 33.0539 27.5148 33.1399 27.6584C33.2468 27.8366 33.2468 28.6924 32.8906 29.6907C32.5343 30.689 30.8262 31.6002 30.0049 31.7229C29.2683 31.833 28.3362 31.8788 27.3121 31.5536C26.6912 31.3566 25.8949 31.0937 24.8749 30.6533C20.868 28.9237 18.1599 25.0418 17.6469 24.3065C17.6108 24.2549 17.5856 24.2187 17.5716 24.2L17.5679 24.1951C17.3409 23.8921 15.826 21.8707 15.826 19.7788C15.826 17.81 16.7934 16.7781 17.2386 16.3031C17.2691 16.2706 17.2971 16.2407 17.3222 16.2133C17.7142 15.7855 18.1772 15.6786 18.4623 15.6786C18.7473 15.6786 19.0326 15.6812 19.2817 15.6936C19.3124 15.6951 19.3443 15.6949 19.3773 15.6947C19.6265 15.6932 19.9372 15.6914 20.2436 16.4272C20.3613 16.71 20.5334 17.1289 20.715 17.571C21.0831 18.4668 21.4901 19.4572 21.5617 19.6005C21.6686 19.8144 21.7398 20.0641 21.5973 20.3493C21.576 20.3919 21.5563 20.4321 21.5375 20.4706C21.4303 20.6894 21.3516 20.8501 21.1698 21.0623C21.0985 21.1455 21.0249 21.2352 20.9513 21.3249C20.804 21.5042 20.6567 21.6835 20.5286 21.811C20.3145 22.0241 20.0917 22.2554 20.3411 22.6833C20.5904 23.1112 21.4485 24.5108 22.7194 25.644C24.0858 26.8625 25.2734 27.3774 25.8752 27.6383C25.9925 27.6892 26.0876 27.7304 26.1574 27.7653C26.5849 27.9793 26.8343 27.9436 27.0836 27.6584C27.333 27.3731 28.1523 26.4105 28.4374 25.9826C28.7224 25.5548 29.0073 25.6261 29.3992 25.7687Z" fill="black"/>
<path fill-rule="evenodd" clip-rule="evenodd" d="M1.30792 6.55211C0 9.11905 0 12.4794 0 19.2V28.8C0 35.5206 0 38.8809 1.30792 41.4479C2.4584 43.7058 4.29417 45.5416 6.55211 46.6921C9.11905 48 12.4794 48 19.2 48H28.8C35.5206 48 38.8809 48 41.4479 46.6921C43.7058 45.5416 45.5416 43.7058 46.6921 41.4479C48 38.8809 48 35.5206 48 28.8V19.2C48 12.4794 48 9.11905 46.6921 6.55211C45.5416 4.29417 43.7058 2.4584 41.4479 1.30792C38.8809 0 35.5206 0 28.8 0H19.2C12.4794 0 9.11905 0 6.55211 1.30792C4.29417 2.4584 2.4584 4.29417 1.30792 6.55211ZM24.5198 6.47391C29.0968 6.47578 33.3928 8.25713 36.6232 11.4902C39.8537 14.7233 41.6317 19.0207 41.6299 23.5911C41.6261 33.0219 33.9499 40.6956 24.52 40.6956H24.5129C21.6492 40.6943 18.8355 39.9763 16.3364 38.6137L7.26611 40.9921L9.69349 32.1285C8.19621 29.5348 7.40843 26.592 7.40964 23.5774C7.41339 14.1465 15.089 6.47391 24.5198 6.47391Z" fill="black"/>
</g>
<defs>
<clipPath id="clip0_1427_79288">
<rect width="48" height="48" fill="white"/>
</clipPath>
</defs>
</svg>
